<svg id="svg" xmlns="http://www.w3.org/2000/svg" xmlns:xlink="http://www.w3.org/1999/xlink" width="400" height="160" viewBox="0, 0, 400,160"><g id="svgg"><path id="path0" d="M13.176 79.529 L 13.176 144.471 35.517 144.471 L 57.858 144.471 57.988 119.814 C 58.111 96.409,58.163 95.107,59.006 94.176 C 60.731 92.270,64.146 92.458,65.750 94.547 C 66.183 95.112,66.327 101.296,66.338 119.882 L 66.353 144.471 70.588 144.471 L 74.824 144.471 74.824 120.257 C 74.824 103.045,74.980 95.702,75.363 94.859 C 76.466 92.439,80.583 92.210,82.360 94.469 C 83.264 95.619,83.294 96.434,83.294 120.063 L 83.294 144.471 87.529 144.471 L 91.765 144.471 91.765 120.026 L 91.765 95.582 92.891 94.272 C 93.792 93.225,94.415 92.963,96.000 92.963 C 97.585 92.963,98.208 93.225,99.109 94.272 L 100.235 95.582 100.235 120.026 L 100.235 144.471 122.588 144.471 L 144.941 144.471 144.941 79.529 L 144.941 14.588 79.059 14.588 L 13.176 14.588 13.176 79.529 M261.055 21.620 C 248.036 25.131,243.868 37.345,251.935 48.341 C 253.032 49.836,254.075 51.299,254.253 51.593 C 254.456 51.928,253.119 52.946,250.677 54.317 C 242.583 58.860,239.341 63.436,239.311 70.361 C 239.243 85.933,261.130 93.795,276.641 83.770 C 280.221 81.456,279.817 81.404,282.288 84.493 L 284.341 87.059 293.888 87.059 L 303.435 87.059 303.603 84.941 C 303.771 82.826,303.769 82.824,302.224 82.824 C 299.504 82.824,297.687 81.638,293.620 77.209 C 288.776 71.935,288.999 72.670,291.202 69.263 C 292.211 67.701,294.364 63.756,295.988 60.495 C 298.997 54.450,300.437 52.706,302.416 52.706 C 303.402 52.706,303.529 52.490,303.529 50.813 L 303.529 48.920 294.737 49.048 L 285.945 49.176 285.901 50.893 C 285.859 52.549,285.924 52.619,287.736 52.862 C 291.816 53.409,291.777 58.744,287.633 66.690 L 286.353 69.145 281.375 63.631 C 278.637 60.599,274.868 56.381,273.000 54.259 L 269.602 50.400 273.507 48.455 C 296.084 37.212,285.758 14.958,261.055 21.620 M173.647 23.706 L 173.647 25.766 176.266 25.983 C 178.306 26.152,179.164 26.480,180.148 27.464 L 181.412 28.727 181.412 54.353 L 181.412 79.979 180.148 81.242 C 179.164 82.226,178.306 82.554,176.266 82.723 L 173.647 82.940 173.647 84.999 L 173.647 87.059 193.090 87.059 C 214.233 87.059,216.364 86.872,221.164 84.592 C 228.086 81.305,231.299 76.015,230.955 68.471 C 230.593 60.511,226.845 56.396,217.261 53.438 L 214.052 52.447 217.890 50.878 C 234.309 44.165,231.150 25.526,213.010 22.086 C 211.737 21.845,202.359 21.647,192.171 21.647 L 173.647 21.647 173.647 23.706 M308.706 23.706 L 308.706 25.766 311.325 25.983 C 313.364 26.152,314.223 26.480,315.207 27.464 L 316.471 28.727 316.471 54.353 L 316.471 79.979 315.258 81.191 C 314.345 82.105,313.386 82.472,311.375 82.680 L 308.706 82.955 308.706 85.007 L 308.706 87.059 323.529 87.059 L 338.353 87.059 338.353 84.941 C 338.353 82.831,338.347 82.824,336.691 82.824 C 331.000 82.824,330.353 81.264,330.353 67.545 L 330.353 56.941 345.412 56.941 L 360.471 56.941 360.471 67.545 C 360.471 81.049,359.790 82.824,354.612 82.824 C 352.946 82.824,352.941 82.829,352.941 84.941 L 352.941 87.059 367.529 87.059 L 382.118 87.059 382.118 84.941 C 382.118 82.831,382.112 82.824,380.455 82.824 C 374.417 82.824,374.542 83.458,374.694 53.598 L 374.824 28.261 375.854 27.230 C 376.589 26.496,377.638 26.137,379.501 25.983 L 382.118 25.766 382.118 23.706 L 382.118 21.647 367.529 21.647 L 352.941 21.647 352.941 23.765 L 352.941 25.882 354.847 25.882 C 359.955 25.882,360.471 27.227,360.471 40.541 L 360.471 50.824 345.412 50.824 L 330.353 50.824 330.353 40.541 C 330.353 27.103,330.841 25.882,336.212 25.882 L 338.353 25.882 338.353 23.765 L 338.353 21.647 323.529 21.647 L 308.706 21.647 308.706 23.706 M136.756 23.803 C 136.599 24.213,136.471 49.624,136.471 80.274 L 136.471 136.000 122.588 136.000 L 108.706 136.000 108.706 110.824 L 108.706 85.647 79.059 85.647 L 49.412 85.647 49.412 110.824 L 49.412 136.000 35.529 136.000 L 21.647 136.000 21.647 79.529 L 21.647 23.059 79.344 23.059 C 131.764 23.059,137.016 23.127,136.756 23.803 M271.887 27.292 C 277.970 31.001,276.201 40.329,268.394 45.700 L 266.406 47.067 264.260 44.059 C 258.872 36.509,258.691 30.362,263.765 27.228 C 265.720 26.021,269.855 26.053,271.887 27.292 M208.582 27.963 C 212.672 29.927,214.592 33.541,214.584 39.260 C 214.572 47.412,210.386 50.824,200.396 50.824 L 195.765 50.824 195.765 38.766 L 195.765 26.708 201.294 26.913 C 205.309 27.062,207.305 27.349,208.582 27.963 M40.000 41.176 L 40.000 44.235 79.059 44.235 L 118.118 44.235 118.118 41.176 L 118.118 38.118 79.059 38.118 L 40.000 38.118 40.000 41.176 M42.118 49.376 C 31.830 51.942,27.811 64.647,34.777 72.580 C 39.826 78.331,50.184 78.087,54.320 72.120 C 57.974 66.848,55.103 59.294,49.447 59.294 C 44.889 59.294,44.105 64.374,48.527 65.258 C 51.947 65.942,48.799 70.588,44.915 70.588 C 35.251 70.588,35.512 57.176,45.217 55.094 C 49.000 54.283,110.048 54.420,113.566 55.248 C 122.241 57.289,123.092 69.513,114.625 70.468 C 109.818 71.010,105.730 66.140,110.173 65.164 C 114.363 64.244,113.267 59.294,108.873 59.294 C 100.635 59.294,100.302 72.120,108.444 75.818 C 124.298 83.019,134.793 58.174,119.144 50.489 L 116.471 49.176 80.000 49.100 C 59.941 49.058,42.894 49.182,42.118 49.376 M208.697 56.981 C 214.131 58.533,216.680 62.419,216.696 69.176 C 216.718 78.405,213.205 81.443,201.765 82.087 L 195.765 82.425 195.765 69.141 L 195.765 55.856 201.294 56.151 C 204.335 56.313,207.667 56.687,208.697 56.981 M262.629 61.743 C 265.324 64.902,269.488 69.710,271.882 72.427 C 277.034 78.273,276.873 77.606,273.529 79.259 C 261.948 84.983,248.434 73.618,252.904 61.914 C 253.478 60.410,257.027 56.000,257.663 56.000 C 257.699 56.000,259.934 58.585,262.629 61.743 M60.706 66.824 L 60.706 69.647 79.176 69.647 L 97.647 69.646 97.664 66.823 L 97.680 64.000 79.193 64.000 L 60.706 64.000 60.706 66.824 M57.326 76.883 C 56.373 77.998,54.890 79.257,54.032 79.680 C 52.569 80.401,54.178 80.447,79.529 80.413 C 94.412 80.393,106.165 80.239,105.647 80.071 C 103.795 79.469,101.821 78.002,100.741 76.426 L 99.643 74.824 79.351 74.839 L 59.059 74.854 57.326 76.883 M173.647 106.786 L 173.647 108.706 175.551 108.706 C 176.945 108.706,177.764 109.015,178.610 109.861 L 179.765 111.016 179.765 127.209 C 179.765 145.833,179.829 145.533,175.726 146.148 C 173.680 146.455,173.602 146.525,173.739 147.940 L 173.882 149.412 187.765 149.412 C 204.882 149.412,208.111 148.610,211.477 143.525 C 216.089 136.554,213.137 129.722,204.258 126.818 L 201.692 125.979 204.022 124.946 C 214.073 120.493,213.471 109.491,202.987 105.999 C 201.163 105.392,197.996 105.202,187.176 105.053 L 173.647 104.866 173.647 106.786 M241.455 109.044 C 228.394 142.693,227.282 145.146,224.796 145.786 C 223.490 146.122,223.275 146.398,223.148 147.910 L 223.002 149.647 230.560 149.647 L 238.118 149.647 238.118 148.061 C 238.118 146.514,238.059 146.466,235.784 146.165 C 232.676 145.752,232.640 145.611,234.357 140.459 L 235.842 136.000 243.686 136.003 L 251.529 136.006 253.059 140.173 C 255.089 145.705,254.908 146.353,251.325 146.353 C 249.990 146.353,249.882 146.476,249.882 148.000 L 249.882 149.647 259.765 149.647 L 269.647 149.647 269.647 148.021 C 269.647 146.534,269.506 146.369,267.992 146.085 C 265.178 145.557,265.785 146.856,253.028 114.118 L 249.544 105.176 246.302 105.044 L 243.059 104.912 241.455 109.044 M280.000 106.824 C 280.000 108.666,280.036 108.706,281.668 108.706 C 282.819 108.706,283.701 109.070,284.509 109.878 L 285.682 111.051 285.547 127.513 C 285.395 146.074,285.468 145.716,281.765 145.959 C 280.056 146.071,280.000 146.131,280.000 147.861 L 280.000 149.647 288.499 149.647 L 296.998 149.647 296.852 147.882 C 296.729 146.396,296.520 146.097,295.529 145.986 C 290.782 145.454,290.781 145.451,290.934 129.631 L 291.059 116.656 293.647 120.097 C 295.071 121.990,300.751 129.413,306.269 136.593 L 316.303 149.647 319.328 149.647 L 322.353 149.647 322.353 131.129 C 322.353 109.154,322.437 108.706,326.557 108.706 C 327.928 108.706,328.000 108.612,328.000 106.813 L 328.000 104.919 319.647 105.048 L 311.294 105.176 311.294 106.824 C 311.294 108.229,311.466 108.491,312.471 108.610 C 317.043 109.152,317.222 109.735,317.067 123.582 L 316.941 134.927 306.118 120.608 C 300.165 112.732,295.059 105.985,294.772 105.615 C 294.359 105.083,292.748 104.941,287.125 104.941 L 280.000 104.941 280.000 106.824 M338.824 106.824 L 338.824 108.706 340.706 108.706 C 344.892 108.706,345.030 109.380,344.848 128.866 C 344.687 146.101,344.851 145.417,340.705 146.118 C 338.940 146.416,338.824 146.535,338.824 148.041 L 338.824 149.647 349.176 149.647 L 359.529 149.647 359.529 148.006 C 359.529 146.458,359.423 146.347,357.669 146.067 C 354.347 145.535,354.137 144.962,353.969 135.952 C 353.887 131.578,354.001 128.000,354.222 128.000 C 354.808 128.000,357.742 131.603,362.832 138.573 C 365.295 141.946,368.146 145.818,369.168 147.176 L 371.024 149.647 377.927 149.647 L 384.829 149.647 384.762 147.921 C 384.703 146.393,384.539 146.174,383.333 146.013 C 379.974 145.563,379.434 145.001,370.330 132.471 C 367.134 128.071,364.297 124.320,364.027 124.137 C 363.727 123.933,364.185 123.110,365.207 122.019 C 366.126 121.038,368.242 118.768,369.910 116.974 C 376.268 110.135,378.172 108.706,380.926 108.706 C 382.003 108.706,382.118 108.524,382.118 106.824 L 382.118 104.941 373.882 104.941 L 365.647 104.941 365.647 106.824 C 365.647 108.701,365.652 108.706,367.502 108.706 C 370.184 108.706,370.232 109.360,367.768 112.374 C 364.769 116.042,354.671 126.969,354.235 127.019 C 353.685 127.081,353.820 112.226,354.382 110.746 C 355.021 109.065,355.593 108.722,357.765 108.713 C 359.509 108.706,359.529 108.684,359.529 106.824 L 359.529 104.941 349.176 104.941 L 338.824 104.941 338.824 106.824 M198.153 109.935 C 200.485 111.297,201.574 113.487,201.613 116.894 C 201.674 122.264,199.286 124.460,192.789 125.009 L 189.176 125.315 189.176 116.950 L 189.176 108.585 192.876 108.799 C 195.385 108.944,197.082 109.310,198.153 109.935 M249.685 131.648 C 249.605 131.728,246.880 131.734,243.629 131.662 L 237.718 131.529 240.221 124.706 C 241.597 120.953,242.973 117.247,243.277 116.471 C 243.812 115.110,243.941 115.359,246.831 123.280 C 248.481 127.802,249.766 131.568,249.685 131.648 M199.472 129.907 C 204.563 132.768,204.610 141.707,199.549 144.662 C 198.329 145.375,196.831 145.660,193.550 145.803 L 189.176 145.995 189.176 137.167 L 189.176 128.340 193.354 128.578 C 196.540 128.760,197.993 129.075,199.472 129.907 " stroke="none" fill="#000000" fill-rule="evenodd"></path></g></svg>