<svg id="svg" version="1.1" xmlns="http://www.w3.org/2000/svg" xmlns:xlink="http://www.w3.org/1999/xlink" width="400" height="400" viewBox="0, 0, 400,400"><g id="svgg"><path id="path0" d="M183.067 9.450 C 84.991 20.877,24.961 122.494,62.071 214.267 C 70.262 234.525,78.770 246.617,100.404 268.749 C 135.977 305.143,155.660 332.282,174.276 370.604 C 182.263 387.045,187.240 390.993,200.000 391.008 C 213.394 391.023,217.161 387.646,228.307 365.625 C 247.204 328.291,264.687 304.351,297.340 271.096 C 323.544 244.409,332.916 230.299,341.451 204.688 C 375.777 101.683,290.773 -3.100,183.067 9.450 M221.094 50.401 C 306.561 68.904,338.445 172.224,277.734 233.945 C 211.334 301.452,97.011 258.194,90.943 163.266 C 86.518 94.032,153.665 35.804,221.094 50.401 M195.251 63.264 C 178.006 74.880,119.886 118.641,119.667 120.174 C 119.167 123.669,120.596 124.219,130.174 124.219 L 139.063 124.219 139.063 157.031 L 139.063 189.844 134.730 189.844 C 128.304 189.844,126.563 191.835,126.563 199.183 L 126.563 204.688 123.091 204.688 C 118.309 204.687,117.188 206.428,117.188 213.846 L 117.188 219.531 200.000 219.531 L 282.813 219.531 282.813 214.513 C 282.813 208.178,280.429 204.688,276.102 204.688 L 273.438 204.688 273.438 198.885 C 273.438 191.589,271.833 189.844,265.129 189.844 L 260.938 189.844 260.938 157.031 L 260.938 124.219 269.826 124.219 C 276.624 124.219,278.935 123.953,279.652 123.090 C 282.163 120.064,280.947 118.998,244.141 91.958 C 195.754 56.410,200.923 59.444,195.251 63.264 M190.625 157.031 L 190.625 189.844 174.609 189.844 L 158.594 189.844 158.594 157.031 L 158.594 124.219 174.609 124.219 L 190.625 124.219 190.625 157.031 M241.406 157.031 L 241.406 189.844 225.391 189.844 L 209.375 189.844 209.375 157.031 L 209.375 124.219 225.391 124.219 L 241.406 124.219 241.406 157.031 " stroke="none" fill="#000000" fill-rule="evenodd"></path></g></svg>